<svg xmlns="http://www.w3.org/2000/svg" width="43.329" height="50" viewBox="0 0 43.329 50">
  <path id="Path_1" data-name="Path 1" d="M875.014,400.5c12.35,12.887-4.833,18.435-4.833,18.435,6.062-8.985,2.63-13.845-1.028-16.283-3.246-2.163-7.188-2.165-10.959-1.172-7.472,1.969-8.323,8.972-8.242,12.583.094,4.223.184,8.446.184,12.67v23.524s22.194,2.864,20.046-11.813-26.132-24.342-6.622-33.112c0,0-9.844,7.159,10.2,22.552s-.716,22.552-.716,22.552,18.614,1.79,20.225-13.6c0,0,.537-10.2-8.949-14.319,0,0,6.622-2.327,5.37-12.171S875.014,400.5,875.014,400.5Z" transform="translate(-849.947 -400.5)" fill="#0071bc"/>
</svg>
